<svg xmlns="http://www.w3.org/2000/svg" viewBox="0 0 1440 320"><path fill="#44995f" fill-opacity="1" d="M0,96L9.2,128C18.5,160,37,224,55,213.3C73.8,203,92,117,111,80C129.2,43,148,53,166,96C184.6,139,203,213,222,229.3C240,245,258,203,277,181.3C295.4,160,314,160,332,186.7C350.8,213,369,267,388,256C406.2,245,425,171,443,117.3C461.5,64,480,32,498,37.3C516.9,43,535,85,554,128C572.3,171,591,213,609,192C627.7,171,646,85,665,80C683.1,75,702,149,720,181.3C738.5,213,757,203,775,176C793.8,149,812,107,831,112C849.2,117,868,171,886,192C904.6,213,923,203,942,202.7C960,203,978,213,997,224C1015.4,235,1034,245,1052,229.3C1070.8,213,1089,171,1108,176C1126.2,181,1145,235,1163,218.7C1181.5,203,1200,117,1218,74.7C1236.9,32,1255,32,1274,64C1292.3,96,1311,160,1329,154.7C1347.7,149,1366,75,1385,64C1403.1,53,1422,107,1431,133.3L1440,160L1440,320L1430.8,320C1421.5,320,1403,320,1385,320C1366.2,320,1348,320,1329,320C1310.8,320,1292,320,1274,320C1255.4,320,1237,320,1218,320C1200,320,1182,320,1163,320C1144.6,320,1126,320,1108,320C1089.2,320,1071,320,1052,320C1033.8,320,1015,320,997,320C978.5,320,960,320,942,320C923.1,320,905,320,886,320C867.7,320,849,320,831,320C812.3,320,794,320,775,320C756.9,320,738,320,720,320C701.5,320,683,320,665,320C646.2,320,628,320,609,320C590.8,320,572,320,554,320C535.4,320,517,320,498,320C480,320,462,320,443,320C424.6,320,406,320,388,320C369.2,320,351,320,332,320C313.8,320,295,320,277,320C258.5,320,240,320,222,320C203.1,320,185,320,166,320C147.7,320,129,320,111,320C92.3,320,74,320,55,320C36.9,320,18,320,9,320L0,320Z"></path></svg>