<svg xmlns="http://www.w3.org/2000/svg" viewBox="0 0 1440 320">
  <path fill="#2A2A2A" fill-opacity="1" d="M0,224L30,197.3C60,171,120,117,180,101.3C240,85,300,107,360,128C420,149,480,171,540,202.7C600,235,660,277,720,288C780,299,840,277,900,229.3C960,181,1020,107,1080,90.7C1140,75,1200,117,1260,117.3C1320,117,1380,75,1410,53.3L1440,32L1440,0L1410,0C1380,0,1320,0,1260,0C1200,0,1140,0,1080,0C1020,0,960,0,900,0C840,0,780,0,720,0C660,0,600,0,540,0C480,0,420,0,360,0C300,0,240,0,180,0C120,0,60,0,30,0L0,0Z"></path>
</svg>