<svg xmlns="http://www.w3.org/2000/svg" viewBox="0 0 1440 320"><path fill="#2A2A2A" fill-opacity="1" d="M0,192L12,213.3C24,235,48,277,72,266.7C96,256,120,192,144,160C168,128,192,128,216,149.3C240,171,264,213,288,208C312,203,336,149,360,117.3C384,85,408,75,432,80C456,85,480,107,504,149.3C528,192,552,256,576,277.3C600,299,624,277,648,224C672,171,696,85,720,58.7C744,32,768,64,792,112C816,160,840,224,864,250.7C888,277,912,267,936,245.3C960,224,984,192,1008,170.7C1032,149,1056,139,1080,154.7C1104,171,1128,213,1152,192C1176,171,1200,85,1224,80C1248,75,1272,149,1296,202.7C1320,256,1344,288,1368,261.3C1392,235,1416,149,1428,106.7L1440,64L1440,0L1428,0C1416,0,1392,0,1368,0C1344,0,1320,0,1296,0C1272,0,1248,0,1224,0C1200,0,1176,0,1152,0C1128,0,1104,0,1080,0C1056,0,1032,0,1008,0C984,0,960,0,936,0C912,0,888,0,864,0C840,0,816,0,792,0C768,0,744,0,720,0C696,0,672,0,648,0C624,0,600,0,576,0C552,0,528,0,504,0C480,0,456,0,432,0C408,0,384,0,360,0C336,0,312,0,288,0C264,0,240,0,216,0C192,0,168,0,144,0C120,0,96,0,72,0C48,0,24,0,12,0L0,0Z"></path></svg>